<?xml version="1.0" encoding="UTF-8" standalone="no"?>
<svg
   xmlns:dc="http://purl.org/dc/elements/1.1/"
   xmlns:cc="http://creativecommons.org/ns#"
   xmlns:rdf="http://www.w3.org/1999/02/22-rdf-syntax-ns#"
   xmlns:svg="http://www.w3.org/2000/svg"
   xmlns="http://www.w3.org/2000/svg"
   xmlns:sodipodi="http://sodipodi.sourceforge.net/DTD/sodipodi-0.dtd"
   xmlns:inkscape="http://www.inkscape.org/namespaces/inkscape"
   version="1.1"
   x="0px"
   y="0px"
   viewBox="0 0 100 100"
   enable-background="new 0 0 100 100"
   xml:space="preserve"
   id="svg3771"
   sodipodi:docname="icon-graph.svg"
   width="100"
   height="100"
   inkscape:version="0.92.4 (5da689c313, 2019-01-14)"><metadata
     id="metadata3777"><rdf:RDF><cc:Work
         rdf:about=""><dc:format>image/svg+xml</dc:format><dc:type
           rdf:resource="http://purl.org/dc/dcmitype/StillImage" /><dc:title></dc:title></cc:Work></rdf:RDF></metadata><defs
     id="defs3775" /><sodipodi:namedview
     pagecolor="#ffffff"
     bordercolor="#666666"
     borderopacity="1"
     objecttolerance="10"
     gridtolerance="10"
     guidetolerance="10"
     inkscape:pageopacity="0"
     inkscape:pageshadow="2"
     inkscape:window-width="2216"
     inkscape:window-height="1496"
     id="namedview3773"
     showgrid="false"
     inkscape:zoom="8"
     inkscape:cx="36.532537"
     inkscape:cy="50.693638"
     inkscape:window-x="1452"
     inkscape:window-y="692"
     inkscape:window-maximized="0"
     inkscape:current-layer="svg3771" /><g
     id="g4716"
     transform="rotate(-29.507587,-0.20330729,-58.091757)"><circle
       transform="scale(1,-1)"
       id="circle4628"
       cx="-38.629772"
       cy="-34.348465"
       r="6.6344762"
       style="fill:#97ffff;fill-opacity:1;stroke-width:0.52100837" /><path
       sodipodi:nodetypes="ccccccccccscccccccssssssssss"
       d="m -12.81285,62.638353 -15.563,-15.263 -1.773,1.773 c -0.266,0.267 -0.659,0.362 -1.017,0.244 -0.357,-0.116 -0.62,-0.424 -0.678,-0.796 l -1.081,-6.863 c -0.05,-0.315 0.063,-0.629 0.281,-0.862 0.298,-0.32 0.811,-0.289 0.863,-0.281 l 6.863,1.081 c 0.372,0.059 0.679,0.321 0.795,0.679 0.117,0.357 0.022,0.751 -0.244,1.017 l -1.887,1.887 15.536,15.235 z m -17.922,-19.859 0.562,3.565 3.004,-3.004 z m -8.153,0.657 c -4.671,0 -8.471,-3.8 -8.471,-8.471 0,-4.671 3.8,-8.471 8.471,-8.471 4.67,0 8.47,3.8 8.47,8.471 0,4.671 -3.8,8.471 -8.47,8.471 z m 0,-12.941 c -2.465,0 -4.471,2.006 -4.471,4.471 0,2.465 2.005,4.471 4.471,4.471 2.465,0 4.47,-2.006 4.47,-4.471 0,-2.465 -2.006,-4.471 -4.47,-4.471 z"
       id="path4712"
       inkscape:connector-curvature="0" /></g><circle
     id="path3781"
     cx="52.219753"
     cy="-52.753788"
     r="12.733914"
     style="fill:#97ffff;fill-opacity:1"
     transform="scale(1,-1)" /><circle
     id="path3779"
     cx="18.619337"
     cy="-82.608932"
     r="5.5643997"
     style="fill:#9aff9a;fill-opacity:1"
     transform="scale(1,-1)" /><circle
     style="fill:#db7093;fill-opacity:1;stroke-width:0.7647059"
     r="9.7376995"
     cy="-82.822945"
     cx="81.539856"
     id="circle4630"
     transform="scale(1,-1)" /><circle
     style="fill:#9aff9a;fill-opacity:1"
     r="5.5643997"
     cy="-32.529335"
     cx="80.897812"
     id="circle4652"
     transform="scale(1,-1)" /><circle
     style="fill:#97ffff;fill-opacity:1;stroke-width:0.68067229"
     r="8.6676226"
     cy="-16.58519"
     cx="52.112747"
     id="circle4674"
     transform="scale(1,-1)" /><path
     d="m 73.969,36.912 c 0.229,0.223 0.28,0.574 0.202,0.884 l -1.692,6.738 c -0.091,0.365 -0.38,0.647 -0.747,0.731 -0.364,0.087 -0.749,-0.045 -0.99,-0.334 l -1.687,-2.021 -4.081,3.242 c 1.037,1.995 1.633,4.254 1.633,6.653 0,3.454 -1.219,6.626 -3.245,9.118 l 4.998,4.998 1.818,-1.818 c 0.19,-0.19 0.634,-0.371 1.017,-0.244 0.357,0.118 0.62,0.424 0.678,0.796 l 1.081,6.863 c 0.05,0.315 -0.055,0.637 -0.281,0.862 -0.226,0.227 -0.547,0.328 -0.863,0.281 L 64.947,72.579 C 64.575,72.52 64.268,72.258 64.152,71.9 64.036,71.542 64.13,71.149 64.396,70.883 l 1.843,-1.843 -4.998,-4.998 c -2.492,2.025 -5.664,3.244 -9.117,3.244 -3.272,0 -6.283,-1.103 -8.711,-2.94 l -12.033,9.67 1.589,1.904 c 0.241,0.289 0.3,0.688 0.152,1.034 -0.148,0.346 -0.478,0.579 -0.853,0.604 l -6.933,0.461 c -0.321,0.011 -0.629,-0.112 -0.834,-0.357 -0.205,-0.245 -0.28,-0.574 -0.202,-0.885 l 1.693,-6.738 c 0.091,-0.364 0.379,-0.651 0.747,-0.73 0.469,-0.101 0.798,0.104 0.99,0.334 l 1.729,2.071 11.738,-9.431 C 38.988,59.74 37.64,56.431 37.64,52.807 c 0,-3.402 1.187,-6.528 3.158,-9.002 l 2.095,-2.149 c 2.508,-2.079 5.725,-3.332 9.23,-3.332 4.507,0 8.539,2.071 11.197,5.31 l 3.81,-3.027 -1.629,-1.952 c -0.241,-0.288 -0.3,-0.688 -0.152,-1.034 0.148,-0.346 0.478,-0.579 0.853,-0.604 l 6.933,-0.461 c 0.023,-0.002 0.459,-0.01 0.834,0.356 z m -3.204,34.561 -0.562,-3.565 -3.004,3.004 z m -43.312,0.96 -0.879,3.5 3.601,-0.239 z m 24.671,-30.11 c -5.78,0 -10.483,4.702 -10.483,10.482 0,5.78 4.702,10.484 10.483,10.484 5.781,0 10.483,-4.703 10.483,-10.483 0,-5.78 -4.703,-10.483 -10.483,-10.483 z m 16.172,-3.442 2.722,3.261 0.879,-3.5 z m 13.156,55.55 c -6.78,0 -12.295,-5.516 -12.295,-12.296 0,-6.78 5.515,-12.296 12.295,-12.296 6.78,0 12.296,5.516 12.296,12.296 0,6.78 -5.516,12.296 -12.296,12.296 z m 0,-20.592 c -4.574,0 -8.295,3.722 -8.295,8.296 0,4.574 3.721,8.296 8.295,8.296 4.574,0 8.296,-3.722 8.296,-8.296 0,-4.574 -3.722,-8.296 -8.296,-8.296 z m -62.571,1.267 c 3.36,0 6.174,2.372 6.863,5.528 0.193816,1.016124 0.160044,2.013281 0.001,3 -0.69,3.156 -3.503,5.528 -6.863,5.528 -3.875,0 -7.029,-3.153 -7.029,-7.028 0,-3.875 3.153,-7.028 7.028,-7.028 z m 0,10.057 c 1.67,0 3.028,-1.358 3.028,-3.028 0,-1.67 -1.358,-3.028 -3.028,-3.028 -1.67,0 -3.029,1.358 -3.029,3.028 0,1.67 1.359,3.028 3.029,3.028 z M 53.624,26.579 v 3.961 h 2.589 c 0.007,0.001 0.013,0.001 0.02,0 0.552,0 1,0.447 1,1 0,0.285 -0.119,0.542 -0.31,0.724 l -3.99,5.483 c -0.377,0.516 -1.241,0.516 -1.617,0 l -4.088,-5.618 c -0.221,-0.305 -0.253,-0.707 -0.083,-1.043 0.17,-0.335 0.515,-0.546 0.891,-0.546 h 2.588 v -3.961 c -5.116,-0.732 -9.065,-5.131 -9.065,-10.446 0,-5.826 4.739,-10.565 10.565,-10.565 5.826,0 10.565,4.739 10.565,10.565 0,5.315 -3.949,9.714 -9.065,10.446 z m -1.5,8.88 2.124,-2.919 H 50 Z m 0,-25.892 c -3.62,0 -6.565,2.945 -6.565,6.565 0,3.62 2.945,6.565 6.565,6.565 3.62,0 6.565,-2.945 6.565,-6.565 0,-3.62 -2.945,-6.565 -6.565,-6.565 z M 80.187,39.94 c -4.296,0 -7.791,-3.495 -7.791,-7.791 0,-4.296 3.495,-7.791 7.791,-7.791 4.296,0 7.791,3.495 7.791,7.791 0,4.296 -3.495,7.791 -7.791,7.791 z m 0,-11.582 c -2.091,0 -3.791,1.7 -3.791,3.791 0,2.091 1.701,3.791 3.791,3.791 2.09,0 3.791,-1.7 3.791,-3.791 0,-2.091 -1.7,-3.791 -3.791,-3.791 z"
     id="path3765"
     inkscape:connector-curvature="0"
     sodipodi:nodetypes="cccccccsccsccccccssccscccsccsccccccsccscccscccccccccccsssssccccsssssssssssccssssssssccccscccccsccssscccccsssssssssssssss" /><path
     sodipodi:nodetypes="ccsccccccsccccccc"
     inkscape:connector-curvature="0"
     id="path4738"
     d="m 69.449758,81.583883 h -35.692 v -2.589 c 0,-0.376 -0.221,-0.703 -0.546,-0.892 -0.376,-0.218 -0.868,-0.044 -1.042,0.083 l -5.618,4.089 c -0.572389,0.653228 -0.365603,1.023642 0,1.618 l 5.618,4.089 c 0.304,0.222 0.707,0.252 1.042,0.083 0.335,-0.171 0.546,-0.516 0.546,-0.892 v -2.589 h 35.691 z m -37.693,3.625 -2.918,-2.124 2.918,-2.124 z" /></svg>